<svg width="60" height="99" viewBox="0 0 60 99" fill="none" xmlns="http://www.w3.org/2000/svg">
<rect width="60" height="99" rx="30" fill="white"/>
<path d="M18.583 71.8306C18.013 71.8306 17.608 71.7206 17.368 71.5006C17.138 71.2706 17.023 70.9356 17.023 70.4956C17.023 70.3656 17.028 70.1606 17.038 69.8806C17.058 69.5906 17.083 69.2506 17.113 68.8606C17.143 68.4706 17.173 68.0456 17.203 67.5856C17.243 67.1256 17.283 66.6556 17.323 66.1756C17.373 65.5856 17.413 65.0806 17.443 64.6606C17.483 64.2306 17.513 63.8656 17.533 63.5656C17.553 63.2556 17.568 63.0006 17.578 62.8006C17.598 62.5906 17.608 62.4106 17.608 62.2606C17.618 62.1006 17.623 61.9556 17.623 61.8256C17.633 61.6956 17.638 61.5556 17.638 61.4056C17.638 61.3256 17.663 61.2706 17.713 61.2406C17.763 61.2006 17.813 61.1806 17.863 61.1806C18.123 61.1806 18.408 61.1756 18.718 61.1656C19.028 61.1456 19.338 61.1256 19.648 61.1056C19.958 61.0856 20.258 61.0706 20.548 61.0606C20.838 61.0406 21.093 61.0306 21.313 61.0306C21.953 61.0306 22.503 61.1106 22.963 61.2706C23.423 61.4206 23.793 61.6456 24.073 61.9456C24.363 62.2356 24.573 62.5906 24.703 63.0106C24.843 63.4306 24.913 63.9106 24.913 64.4506C24.913 65.0406 24.833 65.6106 24.673 66.1606C24.523 66.7006 24.283 67.1806 23.953 67.6006C23.623 68.0206 23.198 68.3556 22.678 68.6056C22.158 68.8556 21.538 68.9806 20.818 68.9806C20.388 68.9806 20.023 68.9356 19.723 68.8456L19.513 71.6056C19.503 71.6856 19.483 71.7456 19.453 71.7856C19.423 71.8156 19.363 71.8306 19.273 71.8306H18.583ZM21.013 63.2806C20.883 63.2806 20.738 63.2906 20.578 63.3106C20.418 63.3206 20.248 63.3356 20.068 63.3556C20.048 63.7756 20.023 64.2856 19.993 64.8856C19.963 65.4856 19.923 66.1156 19.873 66.7756C20.023 66.8156 20.168 66.8456 20.308 66.8656C20.458 66.8756 20.593 66.8806 20.713 66.8806C21.063 66.8806 21.343 66.8006 21.553 66.6406C21.773 66.4706 21.943 66.2656 22.063 66.0256C22.183 65.7856 22.263 65.5356 22.303 65.2756C22.343 65.0156 22.363 64.7906 22.363 64.6006C22.363 64.1706 22.263 63.8456 22.063 63.6256C21.873 63.3956 21.523 63.2806 21.013 63.2806ZM30.2513 61.0156C30.9813 61.0156 31.6063 61.1206 32.1263 61.3306C32.6463 61.5306 33.0713 61.8306 33.4013 62.2306C33.7313 62.6206 33.9713 63.1006 34.1213 63.6706C34.2713 64.2306 34.3463 64.8706 34.3463 65.5906C34.3463 65.9906 34.3163 66.4256 34.2563 66.8956C34.2063 67.3656 34.1063 67.8406 33.9563 68.3206C33.8163 68.7906 33.6213 69.2456 33.3713 69.6856C33.1213 70.1256 32.7963 70.5156 32.3963 70.8556C32.0063 71.1956 31.5363 71.4706 30.9863 71.6806C30.4363 71.8806 29.7863 71.9806 29.0363 71.9806C28.2063 71.9806 27.5163 71.8556 26.9663 71.6056C26.4263 71.3556 25.9913 71.0206 25.6613 70.6006C25.3413 70.1706 25.1113 69.6656 24.9713 69.0856C24.8413 68.5056 24.7763 67.8856 24.7763 67.2256C24.7763 66.4456 24.8663 65.6856 25.0463 64.9456C25.2263 64.1956 25.5263 63.5306 25.9463 62.9506C26.3763 62.3706 26.9413 61.9056 27.6413 61.5556C28.3413 61.1956 29.2113 61.0156 30.2513 61.0156ZM29.9363 63.3406C29.5863 63.3406 29.2813 63.4056 29.0213 63.5356C28.7713 63.6556 28.5563 63.8206 28.3763 64.0306C28.2063 64.2406 28.0663 64.4756 27.9563 64.7356C27.8563 64.9956 27.7763 65.2656 27.7163 65.5456C27.6563 65.8156 27.6163 66.0806 27.5963 66.3406C27.5763 66.5906 27.5663 66.8156 27.5663 67.0156C27.5663 67.9256 27.7163 68.5906 28.0163 69.0106C28.3263 69.4306 28.7613 69.6406 29.3213 69.6406C29.7813 69.6406 30.1563 69.4956 30.4463 69.2056C30.7363 68.9056 30.9613 68.5506 31.1213 68.1406C31.2913 67.7206 31.4063 67.2906 31.4663 66.8506C31.5263 66.4006 31.5563 66.0206 31.5563 65.7106C31.5563 64.9806 31.4313 64.4056 31.1813 63.9856C30.9313 63.5556 30.5163 63.3406 29.9363 63.3406ZM35.3204 61.4056C35.3304 61.3256 35.3604 61.2706 35.4104 61.2406C35.4704 61.2006 35.5254 61.1806 35.5754 61.1806C36.2554 61.1806 36.8904 61.1606 37.4804 61.1206C38.0804 61.0706 38.5504 61.0456 38.8904 61.0456C39.7404 61.0456 40.4504 61.1306 41.0204 61.3006C41.6004 61.4706 42.0654 61.7356 42.4154 62.0956C42.7754 62.4556 43.0304 62.9206 43.1804 63.4906C43.3304 64.0606 43.4054 64.7456 43.4054 65.5456C43.4054 66.3556 43.3204 67.1506 43.1504 67.9306C42.9904 68.7006 42.7054 69.3856 42.2954 69.9856C41.8854 70.5856 41.3304 71.0706 40.6304 71.4406C39.9404 71.8006 39.0654 71.9806 38.0054 71.9806C37.5154 71.9806 37.0654 71.9706 36.6554 71.9506C36.2554 71.9306 35.9104 71.8706 35.6204 71.7706C35.3304 71.6706 35.1054 71.5206 34.9454 71.3206C34.7854 71.1206 34.7054 70.8456 34.7054 70.4956C34.7054 70.3656 34.7104 70.1706 34.7204 69.9106C34.7404 69.6506 34.7604 69.3406 34.7804 68.9806C34.8104 68.6206 34.8404 68.2256 34.8704 67.7956C34.9104 67.3556 34.9504 66.8956 34.9904 66.4156C35.0704 65.4256 35.1304 64.6356 35.1704 64.0456C35.2204 63.4556 35.2504 62.9956 35.2604 62.6656C35.2804 62.3256 35.2904 62.0706 35.2904 61.9006C35.3004 61.7306 35.3104 61.5656 35.3204 61.4056ZM38.1104 69.6106C38.6704 69.6106 39.1154 69.4906 39.4454 69.2506C39.7854 69.0106 40.0454 68.7056 40.2254 68.3356C40.4054 67.9656 40.5254 67.5606 40.5854 67.1206C40.6454 66.6806 40.6754 66.2656 40.6754 65.8756C40.6754 65.4556 40.6454 65.0906 40.5854 64.7806C40.5354 64.4606 40.4404 64.1956 40.3004 63.9856C40.1704 63.7756 39.9854 63.6206 39.7454 63.5206C39.5054 63.4106 39.2054 63.3556 38.8454 63.3556C38.7354 63.3556 38.5954 63.3606 38.4254 63.3706C38.2554 63.3806 38.0504 63.3956 37.8104 63.4156C37.7904 63.7856 37.7654 64.2256 37.7354 64.7356C37.7054 65.2356 37.6704 65.7656 37.6304 66.3256C37.6004 66.8756 37.5654 67.4356 37.5254 68.0056C37.4854 68.5656 37.4454 69.0856 37.4054 69.5656C37.5554 69.5856 37.6904 69.6006 37.8104 69.6106C37.9304 69.6106 38.0304 69.6106 38.1104 69.6106ZM17.1121 80.5956C17.3221 79.8956 17.5021 79.2806 17.6521 78.7506C17.8021 78.2206 17.9521 77.6756 18.1021 77.1156C18.2521 76.5556 18.4121 75.9256 18.5821 75.2256C18.7521 74.5256 18.9671 73.6556 19.2271 72.6156C19.2771 72.4256 19.3321 72.3056 19.3921 72.2556C19.4621 72.1956 19.6121 72.1656 19.8421 72.1656C19.9421 72.1656 20.0971 72.1756 20.3071 72.1956C20.5271 72.2056 20.7471 72.2506 20.9671 72.3306C21.1871 72.4006 21.3821 72.5106 21.5521 72.6606C21.7221 72.8006 21.8071 73.0056 21.8071 73.2756C21.8071 73.5156 21.7371 73.8856 21.5971 74.3856C21.4671 74.8756 21.2971 75.4356 21.0871 76.0656C20.8771 76.6956 20.6421 77.3556 20.3821 78.0456C20.1321 78.7256 19.8821 79.3706 19.6321 79.9806C19.3821 80.5906 19.1521 81.1256 18.9421 81.5856C18.7421 82.0456 18.5921 82.3656 18.4921 82.5456C18.3821 82.7356 18.1871 82.8306 17.9071 82.8306H16.3321C16.0821 82.8306 15.8721 82.7856 15.7021 82.6956C15.5421 82.5956 15.4071 82.4656 15.2971 82.3056C15.1871 82.1456 15.0971 81.9656 15.0271 81.7656C14.9571 81.5556 14.8971 81.3456 14.8471 81.1356C14.5071 79.7156 14.2121 78.4856 13.9621 77.4456C13.7221 76.3956 13.5221 75.5206 13.3621 74.8206C13.2021 74.1106 13.0821 73.5656 13.0021 73.1856C12.9221 72.8056 12.8821 72.5706 12.8821 72.4806C12.8821 72.3706 12.9621 72.2906 13.1221 72.2406C13.2821 72.1806 13.5521 72.1506 13.9321 72.1506C14.3321 72.1506 14.6571 72.1906 14.9071 72.2706C15.1671 72.3506 15.3721 72.4656 15.5221 72.6156C15.6821 72.7556 15.7971 72.9256 15.8671 73.1256C15.9471 73.3156 16.0021 73.5256 16.0321 73.7556C16.0621 73.9256 16.0921 74.1306 16.1221 74.3706C16.1521 74.6006 16.2021 74.9556 16.2721 75.4356C16.3521 75.9156 16.4571 76.5656 16.5871 77.3856C16.7171 78.1956 16.8921 79.2656 17.1121 80.5956ZM23.2778 82.8306C22.7178 82.8306 22.3178 82.7206 22.0778 82.5006C21.8378 82.2806 21.7178 81.9656 21.7178 81.5556C21.7178 81.3556 21.7328 81.0156 21.7628 80.5356C21.7928 80.0456 21.8328 79.4906 21.8828 78.8706C21.9328 78.2506 21.9828 77.5956 22.0328 76.9056C22.0828 76.2156 22.1328 75.5656 22.1828 74.9556C22.2328 74.3456 22.2728 73.8106 22.3028 73.3506C22.3328 72.8906 22.3478 72.5756 22.3478 72.4056C22.3478 72.2556 22.4278 72.1806 22.5878 72.1806H23.4128C24.0228 72.1806 24.4328 72.3106 24.6428 72.5706C24.8528 72.8306 24.9578 73.2156 24.9578 73.7256C24.9578 73.7756 24.9478 73.9356 24.9278 74.2056C24.9178 74.4756 24.8978 74.8156 24.8678 75.2256C24.8378 75.6356 24.8028 76.0956 24.7628 76.6056C24.7328 77.1056 24.6978 77.6206 24.6578 78.1506C24.6278 78.6806 24.5928 79.2006 24.5528 79.7106C24.5228 80.2106 24.4928 80.6656 24.4628 81.0756C24.4328 81.4856 24.4078 81.8306 24.3878 82.1106C24.3678 82.3806 24.3528 82.5456 24.3428 82.6056C24.3328 82.6856 24.3128 82.7456 24.2828 82.7856C24.2528 82.8156 24.1928 82.8306 24.1028 82.8306H23.2778ZM28.4896 82.9806C27.8996 82.9806 27.4146 82.9406 27.0346 82.8606C26.6546 82.7906 26.3496 82.6856 26.1196 82.5456C25.8996 82.3956 25.7446 82.2106 25.6546 81.9906C25.5746 81.7706 25.5346 81.5106 25.5346 81.2106C25.5346 81.1206 25.5396 80.9956 25.5496 80.8356C25.5596 80.6656 25.5746 80.4306 25.5946 80.1306C25.6146 79.8306 25.6396 79.4456 25.6696 78.9756C25.7096 78.4956 25.7596 77.8956 25.8196 77.1756C25.8896 76.2856 25.9446 75.5806 25.9846 75.0606C26.0246 74.5406 26.0546 74.1406 26.0746 73.8606C26.0946 73.5706 26.1046 73.3706 26.1046 73.2606C26.1146 73.1406 26.1196 73.0406 26.1196 72.9606C26.1196 72.8006 26.1196 72.6706 26.1196 72.5706C26.1296 72.4706 26.1396 72.3956 26.1496 72.3456C26.1696 72.2856 26.1946 72.2456 26.2246 72.2256C26.2646 72.1956 26.3196 72.1806 26.3896 72.1806C26.9796 72.1406 27.4796 72.1106 27.8896 72.0906C28.3096 72.0706 28.6746 72.0606 28.9846 72.0606C29.7446 72.0606 30.3946 72.1256 30.9346 72.2556C31.4846 72.3756 31.9296 72.5506 32.2696 72.7806C32.6096 73.0106 32.8596 73.2956 33.0196 73.6356C33.1796 73.9756 33.2596 74.3606 33.2596 74.7906C33.2596 75.0306 33.2346 75.2806 33.1846 75.5406C33.1346 75.7906 33.0496 76.0306 32.9296 76.2606C32.8096 76.4906 32.6446 76.6956 32.4346 76.8756C32.2346 77.0456 31.9796 77.1706 31.6696 77.2506C32.2496 77.4306 32.6596 77.7306 32.8996 78.1506C33.1396 78.5606 33.2596 79.0506 33.2596 79.6206C33.2596 80.0806 33.1846 80.5156 33.0346 80.9256C32.8846 81.3256 32.6246 81.6806 32.2546 81.9906C31.8846 82.2906 31.3946 82.5306 30.7846 82.7106C30.1746 82.8906 29.4096 82.9806 28.4896 82.9806ZM29.3446 78.3306C29.2346 78.3306 29.0996 78.3406 28.9396 78.3606C28.7796 78.3706 28.6146 78.3906 28.4446 78.4206L28.2796 80.8656C28.6396 80.9756 28.9646 81.0306 29.2546 81.0306C29.5646 81.0306 29.8146 80.9856 30.0046 80.8956C30.1946 80.8056 30.3396 80.6956 30.4396 80.5656C30.5496 80.4256 30.6196 80.2756 30.6496 80.1156C30.6896 79.9456 30.7096 79.7906 30.7096 79.6506C30.7096 79.2806 30.6046 78.9706 30.3946 78.7206C30.1946 78.4606 29.8446 78.3306 29.3446 78.3306ZM28.7146 74.2056C28.6946 74.4656 28.6746 74.7706 28.6546 75.1206C28.6446 75.4706 28.6246 75.8506 28.5946 76.2606C28.9146 76.3406 29.1996 76.3806 29.4496 76.3806C29.7496 76.3806 29.9896 76.3456 30.1696 76.2756C30.3496 76.2056 30.4896 76.1156 30.5896 76.0056C30.6996 75.8956 30.7696 75.7756 30.7996 75.6456C30.8396 75.5156 30.8596 75.3906 30.8596 75.2706C30.8596 74.9606 30.7546 74.6956 30.5446 74.4756C30.3446 74.2456 29.9946 74.1306 29.4946 74.1306C29.3846 74.1306 29.2596 74.1406 29.1196 74.1606C28.9896 74.1706 28.8546 74.1856 28.7146 74.2056ZM35.2766 82.8306C34.7166 82.8306 34.3166 82.7206 34.0766 82.5006C33.8366 82.2806 33.7166 81.9656 33.7166 81.5556C33.7166 81.3556 33.7316 81.0156 33.7616 80.5356C33.7916 80.0456 33.8316 79.4906 33.8816 78.8706C33.9316 78.2506 33.9816 77.5956 34.0316 76.9056C34.0816 76.2156 34.1316 75.5656 34.1816 74.9556C34.2316 74.3456 34.2716 73.8106 34.3016 73.3506C34.3316 72.8906 34.3466 72.5756 34.3466 72.4056C34.3466 72.2556 34.4266 72.1806 34.5866 72.1806H39.8666C39.9266 72.1806 39.9816 72.1956 40.0316 72.2256C40.0816 72.2556 40.1066 72.3106 40.1066 72.3906L40.0466 73.2756C40.0266 73.5756 39.9416 73.8206 39.7916 74.0106C39.6516 74.1906 39.3566 74.2806 38.9066 74.2806H36.8366L36.6866 76.3956H38.8166C38.8766 76.3956 38.9316 76.4106 38.9816 76.4406C39.0316 76.4706 39.0566 76.5256 39.0566 76.6056L38.9966 77.4906C38.9766 77.7906 38.8916 78.0356 38.7416 78.2256C38.6016 78.4056 38.3066 78.4956 37.8566 78.4956H36.5516L36.3866 80.7306H39.6866C39.7466 80.7306 39.8016 80.7506 39.8516 80.7906C39.9016 80.8206 39.9266 80.8706 39.9266 80.9406L39.8666 81.8256C39.8466 82.1256 39.7616 82.3706 39.6116 82.5606C39.4716 82.7406 39.1766 82.8306 38.7266 82.8306H35.2766ZM44.4563 72.0306C45.3963 72.0306 46.0913 72.2356 46.5413 72.6456C47.0013 73.0556 47.2313 73.5906 47.2313 74.2506C47.2313 74.8106 47.0763 75.2406 46.7663 75.5406C46.4563 75.8306 46.0113 75.9756 45.4313 75.9756C45.2513 75.9756 45.1363 75.9606 45.0863 75.9306C45.0363 75.8906 45.0113 75.8156 45.0113 75.7056C45.0113 75.6056 45.0013 75.4756 44.9813 75.3156C44.9713 75.1556 44.9363 75.0006 44.8763 74.8506C44.8163 74.7006 44.7213 74.5756 44.5913 74.4756C44.4613 74.3656 44.2813 74.3106 44.0513 74.3106C43.7313 74.3106 43.4463 74.4106 43.1963 74.6106C42.9463 74.8006 42.8213 75.0506 42.8213 75.3606C42.8213 75.6306 42.9213 75.8506 43.1213 76.0206C43.3313 76.1906 43.5913 76.3506 43.9013 76.5006C44.2113 76.6406 44.5463 76.7856 44.9063 76.9356C45.2763 77.0856 45.6163 77.2856 45.9263 77.5356C46.2363 77.7756 46.4913 78.0806 46.6913 78.4506C46.9013 78.8106 47.0063 79.2706 47.0063 79.8306C47.0063 80.2706 46.9313 80.6856 46.7813 81.0756C46.6413 81.4556 46.4263 81.7906 46.1363 82.0806C45.8563 82.3606 45.4963 82.5806 45.0563 82.7406C44.6263 82.9006 44.1213 82.9806 43.5413 82.9806C43.0413 82.9806 42.5763 82.9256 42.1463 82.8156C41.7263 82.7056 41.3563 82.5706 41.0363 82.4106C40.7263 82.2406 40.4813 82.0606 40.3013 81.8706C40.1213 81.6706 40.0313 81.4906 40.0313 81.3306C40.0313 80.6706 40.0663 80.1956 40.1363 79.9056C40.2163 79.6156 40.3563 79.4706 40.5563 79.4706C40.6963 79.4706 40.8413 79.5306 40.9913 79.6506C41.1513 79.7706 41.3313 79.9056 41.5313 80.0556C41.7313 80.2056 41.9613 80.3406 42.2213 80.4606C42.4913 80.5806 42.8013 80.6406 43.1513 80.6406C43.2913 80.6406 43.4263 80.6306 43.5563 80.6106C43.6963 80.5806 43.8163 80.5356 43.9163 80.4756C44.0263 80.4156 44.1113 80.3356 44.1713 80.2356C44.2413 80.1356 44.2763 80.0156 44.2763 79.8756C44.2763 79.6256 44.1813 79.4256 43.9913 79.2756C43.8013 79.1256 43.5613 78.9906 43.2713 78.8706C42.9813 78.7406 42.6663 78.6106 42.3263 78.4806C41.9963 78.3406 41.6863 78.1556 41.3963 77.9256C41.1063 77.6856 40.8663 77.3806 40.6763 77.0106C40.4863 76.6406 40.3913 76.1656 40.3913 75.5856C40.3913 74.9356 40.5113 74.3856 40.7513 73.9356C41.0013 73.4856 41.3163 73.1206 41.6963 72.8406C42.0863 72.5506 42.5213 72.3456 43.0013 72.2256C43.4913 72.0956 43.9763 72.0306 44.4563 72.0306Z" fill="#07120C"/>
<path d="M25 49.3851H35M40 31.106V33.5432C40 38.9051 35.5 43.292 30 43.292M30 43.292C24.5 43.292 20 38.9051 20 33.5432V31.106M30 43.292V49.3851" stroke="#07120C" stroke-width="3" stroke-linecap="round" stroke-linejoin="round"/>
<path d="M30 39.8107C29.1392 39.8087 28.2875 39.637 27.4956 39.3058C26.7037 38.9746 25.9877 38.4906 25.39 37.8826C24.1665 36.6717 23.4795 35.0357 23.4783 33.3304V24.4501C23.475 23.6087 23.6414 22.7749 23.968 21.997C24.2945 21.219 24.7748 20.5121 25.381 19.9171C25.9873 19.3222 26.7076 18.8508 27.5003 18.5304C28.2931 18.2099 29.1427 18.0466 30 18.0499C33.6571 18.0499 36.5217 20.8612 36.5217 24.4501V33.3304C36.5217 36.9034 33.5959 39.8107 30 39.8107Z" fill="#07120C"/>
</svg>
