<svg width="60" height="99" viewBox="0 0 60 99" fill="none" xmlns="http://www.w3.org/2000/svg">
<rect width="60" height="98.9011" rx="30" fill="#215036"/>
<path d="M18.583 71.7705C18.013 71.7705 17.608 71.6605 17.368 71.4405C17.138 71.2105 17.023 70.8755 17.023 70.4355C17.023 70.3055 17.028 70.1005 17.038 69.8205C17.058 69.5305 17.083 69.1905 17.113 68.8005C17.143 68.4105 17.173 67.9855 17.203 67.5255C17.243 67.0655 17.283 66.5955 17.323 66.1155C17.373 65.5255 17.413 65.0205 17.443 64.6005C17.483 64.1705 17.513 63.8055 17.533 63.5055C17.553 63.1955 17.568 62.9405 17.578 62.7405C17.598 62.5305 17.608 62.3505 17.608 62.2005C17.618 62.0405 17.623 61.8955 17.623 61.7655C17.633 61.6355 17.638 61.4955 17.638 61.3455C17.638 61.2655 17.663 61.2105 17.713 61.1805C17.763 61.1405 17.813 61.1205 17.863 61.1205C18.123 61.1205 18.408 61.1155 18.718 61.1055C19.028 61.0855 19.338 61.0655 19.648 61.0455C19.958 61.0255 20.258 61.0105 20.548 61.0005C20.838 60.9805 21.093 60.9705 21.313 60.9705C21.953 60.9705 22.503 61.0505 22.963 61.2105C23.423 61.3605 23.793 61.5855 24.073 61.8855C24.363 62.1755 24.573 62.5305 24.703 62.9505C24.843 63.3705 24.913 63.8505 24.913 64.3905C24.913 64.9805 24.833 65.5505 24.673 66.1005C24.523 66.6405 24.283 67.1205 23.953 67.5405C23.623 67.9605 23.198 68.2955 22.678 68.5455C22.158 68.7955 21.538 68.9205 20.818 68.9205C20.388 68.9205 20.023 68.8755 19.723 68.7855L19.513 71.5455C19.503 71.6255 19.483 71.6855 19.453 71.7255C19.423 71.7555 19.363 71.7705 19.273 71.7705H18.583ZM21.013 63.2205C20.883 63.2205 20.738 63.2305 20.578 63.2505C20.418 63.2605 20.248 63.2755 20.068 63.2955C20.048 63.7155 20.023 64.2255 19.993 64.8255C19.963 65.4255 19.923 66.0555 19.873 66.7155C20.023 66.7555 20.168 66.7855 20.308 66.8055C20.458 66.8155 20.593 66.8205 20.713 66.8205C21.063 66.8205 21.343 66.7405 21.553 66.5805C21.773 66.4105 21.943 66.2055 22.063 65.9655C22.183 65.7255 22.263 65.4755 22.303 65.2155C22.343 64.9555 22.363 64.7305 22.363 64.5405C22.363 64.1105 22.263 63.7855 22.063 63.5655C21.873 63.3355 21.523 63.2205 21.013 63.2205ZM30.2513 60.9555C30.9813 60.9555 31.6063 61.0605 32.1263 61.2705C32.6463 61.4705 33.0713 61.7705 33.4013 62.1705C33.7313 62.5605 33.9713 63.0405 34.1213 63.6105C34.2713 64.1705 34.3463 64.8105 34.3463 65.5305C34.3463 65.9305 34.3163 66.3655 34.2563 66.8355C34.2063 67.3055 34.1063 67.7805 33.9563 68.2605C33.8163 68.7305 33.6213 69.1855 33.3713 69.6255C33.1213 70.0655 32.7963 70.4555 32.3963 70.7955C32.0063 71.1355 31.5363 71.4105 30.9863 71.6205C30.4363 71.8205 29.7863 71.9205 29.0363 71.9205C28.2063 71.9205 27.5163 71.7955 26.9663 71.5455C26.4263 71.2955 25.9913 70.9605 25.6613 70.5405C25.3413 70.1105 25.1113 69.6055 24.9713 69.0255C24.8413 68.4455 24.7763 67.8255 24.7763 67.1655C24.7763 66.3855 24.8663 65.6255 25.0463 64.8855C25.2263 64.1355 25.5263 63.4705 25.9463 62.8905C26.3763 62.3105 26.9413 61.8455 27.6413 61.4955C28.3413 61.1355 29.2113 60.9555 30.2513 60.9555ZM29.9363 63.2805C29.5863 63.2805 29.2813 63.3455 29.0213 63.4755C28.7713 63.5955 28.5563 63.7605 28.3763 63.9705C28.2063 64.1805 28.0663 64.4155 27.9563 64.6755C27.8563 64.9355 27.7763 65.2055 27.7163 65.4855C27.6563 65.7555 27.6163 66.0205 27.5963 66.2805C27.5763 66.5305 27.5663 66.7555 27.5663 66.9555C27.5663 67.8655 27.7163 68.5305 28.0163 68.9505C28.3263 69.3705 28.7613 69.5805 29.3213 69.5805C29.7813 69.5805 30.1563 69.4355 30.4463 69.1455C30.7363 68.8455 30.9613 68.4905 31.1213 68.0805C31.2913 67.6605 31.4063 67.2305 31.4663 66.7905C31.5263 66.3405 31.5563 65.9605 31.5563 65.6505C31.5563 64.9205 31.4313 64.3455 31.1813 63.9255C30.9313 63.4955 30.5163 63.2805 29.9363 63.2805ZM35.3204 61.3455C35.3304 61.2655 35.3604 61.2105 35.4104 61.1805C35.4704 61.1405 35.5254 61.1205 35.5754 61.1205C36.2554 61.1205 36.8904 61.1005 37.4804 61.0605C38.0804 61.0105 38.5504 60.9855 38.8904 60.9855C39.7404 60.9855 40.4504 61.0705 41.0204 61.2405C41.6004 61.4105 42.0654 61.6755 42.4154 62.0355C42.7754 62.3955 43.0304 62.8605 43.1804 63.4305C43.3304 64.0005 43.4054 64.6855 43.4054 65.4855C43.4054 66.2955 43.3204 67.0905 43.1504 67.8705C42.9904 68.6405 42.7054 69.3255 42.2954 69.9255C41.8854 70.5255 41.3304 71.0105 40.6304 71.3805C39.9404 71.7405 39.0654 71.9205 38.0054 71.9205C37.5154 71.9205 37.0654 71.9105 36.6554 71.8905C36.2554 71.8705 35.9104 71.8105 35.6204 71.7105C35.3304 71.6105 35.1054 71.4605 34.9454 71.2605C34.7854 71.0605 34.7054 70.7855 34.7054 70.4355C34.7054 70.3055 34.7104 70.1105 34.7204 69.8505C34.7404 69.5905 34.7604 69.2805 34.7804 68.9205C34.8104 68.5605 34.8404 68.1655 34.8704 67.7355C34.9104 67.2955 34.9504 66.8355 34.9904 66.3555C35.0704 65.3655 35.1304 64.5755 35.1704 63.9855C35.2204 63.3955 35.2504 62.9355 35.2604 62.6055C35.2804 62.2655 35.2904 62.0105 35.2904 61.8405C35.3004 61.6705 35.3104 61.5055 35.3204 61.3455ZM38.1104 69.5505C38.6704 69.5505 39.1154 69.4305 39.4454 69.1905C39.7854 68.9505 40.0454 68.6455 40.2254 68.2755C40.4054 67.9055 40.5254 67.5005 40.5854 67.0605C40.6454 66.6205 40.6754 66.2055 40.6754 65.8155C40.6754 65.3955 40.6454 65.0305 40.5854 64.7205C40.5354 64.4005 40.4404 64.1355 40.3004 63.9255C40.1704 63.7155 39.9854 63.5605 39.7454 63.4605C39.5054 63.3505 39.2054 63.2955 38.8454 63.2955C38.7354 63.2955 38.5954 63.3005 38.4254 63.3105C38.2554 63.3205 38.0504 63.3355 37.8104 63.3555C37.7904 63.7255 37.7654 64.1655 37.7354 64.6755C37.7054 65.1755 37.6704 65.7055 37.6304 66.2655C37.6004 66.8155 37.5654 67.3755 37.5254 67.9455C37.4854 68.5055 37.4454 69.0255 37.4054 69.5055C37.5554 69.5255 37.6904 69.5405 37.8104 69.5505C37.9304 69.5505 38.0304 69.5505 38.1104 69.5505ZM17.1121 80.5355C17.3221 79.8355 17.5021 79.2205 17.6521 78.6905C17.8021 78.1605 17.9521 77.6155 18.1021 77.0555C18.2521 76.4955 18.4121 75.8655 18.5821 75.1655C18.7521 74.4655 18.9671 73.5955 19.2271 72.5555C19.2771 72.3655 19.3321 72.2455 19.3921 72.1955C19.4621 72.1355 19.6121 72.1055 19.8421 72.1055C19.9421 72.1055 20.0971 72.1155 20.3071 72.1355C20.5271 72.1455 20.7471 72.1905 20.9671 72.2705C21.1871 72.3405 21.3821 72.4505 21.5521 72.6005C21.7221 72.7405 21.8071 72.9455 21.8071 73.2155C21.8071 73.4555 21.7371 73.8255 21.5971 74.3255C21.4671 74.8155 21.2971 75.3755 21.0871 76.0055C20.8771 76.6355 20.6421 77.2955 20.3821 77.9855C20.1321 78.6655 19.8821 79.3105 19.6321 79.9205C19.3821 80.5305 19.1521 81.0655 18.9421 81.5255C18.7421 81.9855 18.5921 82.3055 18.4921 82.4855C18.3821 82.6755 18.1871 82.7705 17.9071 82.7705H16.3321C16.0821 82.7705 15.8721 82.7255 15.7021 82.6355C15.5421 82.5355 15.4071 82.4055 15.2971 82.2455C15.1871 82.0855 15.0971 81.9055 15.0271 81.7055C14.9571 81.4955 14.8971 81.2855 14.8471 81.0755C14.5071 79.6555 14.2121 78.4255 13.9621 77.3855C13.7221 76.3355 13.5221 75.4605 13.3621 74.7605C13.2021 74.0505 13.0821 73.5055 13.0021 73.1255C12.9221 72.7455 12.8821 72.5105 12.8821 72.4205C12.8821 72.3105 12.9621 72.2305 13.1221 72.1805C13.2821 72.1205 13.5521 72.0905 13.9321 72.0905C14.3321 72.0905 14.6571 72.1305 14.9071 72.2105C15.1671 72.2905 15.3721 72.4055 15.5221 72.5555C15.6821 72.6955 15.7971 72.8655 15.8671 73.0655C15.9471 73.2555 16.0021 73.4655 16.0321 73.6955C16.0621 73.8655 16.0921 74.0705 16.1221 74.3105C16.1521 74.5405 16.2021 74.8955 16.2721 75.3755C16.3521 75.8555 16.4571 76.5055 16.5871 77.3255C16.7171 78.1355 16.8921 79.2055 17.1121 80.5355ZM23.2778 82.7705C22.7178 82.7705 22.3178 82.6605 22.0778 82.4405C21.8378 82.2205 21.7178 81.9055 21.7178 81.4955C21.7178 81.2955 21.7328 80.9555 21.7628 80.4755C21.7928 79.9855 21.8328 79.4305 21.8828 78.8105C21.9328 78.1905 21.9828 77.5355 22.0328 76.8455C22.0828 76.1555 22.1328 75.5055 22.1828 74.8955C22.2328 74.2855 22.2728 73.7505 22.3028 73.2905C22.3328 72.8305 22.3478 72.5155 22.3478 72.3455C22.3478 72.1955 22.4278 72.1205 22.5878 72.1205H23.4128C24.0228 72.1205 24.4328 72.2505 24.6428 72.5105C24.8528 72.7705 24.9578 73.1555 24.9578 73.6655C24.9578 73.7155 24.9478 73.8755 24.9278 74.1455C24.9178 74.4155 24.8978 74.7555 24.8678 75.1655C24.8378 75.5755 24.8028 76.0355 24.7628 76.5455C24.7328 77.0455 24.6978 77.5605 24.6578 78.0905C24.6278 78.6205 24.5928 79.1405 24.5528 79.6505C24.5228 80.1505 24.4928 80.6055 24.4628 81.0155C24.4328 81.4255 24.4078 81.7705 24.3878 82.0505C24.3678 82.3205 24.3528 82.4855 24.3428 82.5455C24.3328 82.6255 24.3128 82.6855 24.2828 82.7255C24.2528 82.7555 24.1928 82.7705 24.1028 82.7705H23.2778ZM28.4896 82.9205C27.8996 82.9205 27.4146 82.8805 27.0346 82.8005C26.6546 82.7305 26.3496 82.6255 26.1196 82.4855C25.8996 82.3355 25.7446 82.1505 25.6546 81.9305C25.5746 81.7105 25.5346 81.4505 25.5346 81.1505C25.5346 81.0605 25.5396 80.9355 25.5496 80.7755C25.5596 80.6055 25.5746 80.3705 25.5946 80.0705C25.6146 79.7705 25.6396 79.3855 25.6696 78.9155C25.7096 78.4355 25.7596 77.8355 25.8196 77.1155C25.8896 76.2255 25.9446 75.5205 25.9846 75.0005C26.0246 74.4805 26.0546 74.0805 26.0746 73.8005C26.0946 73.5105 26.1046 73.3105 26.1046 73.2005C26.1146 73.0805 26.1196 72.9805 26.1196 72.9005C26.1196 72.7405 26.1196 72.6105 26.1196 72.5105C26.1296 72.4105 26.1396 72.3355 26.1496 72.2855C26.1696 72.2255 26.1946 72.1855 26.2246 72.1655C26.2646 72.1355 26.3196 72.1205 26.3896 72.1205C26.9796 72.0805 27.4796 72.0505 27.8896 72.0305C28.3096 72.0105 28.6746 72.0005 28.9846 72.0005C29.7446 72.0005 30.3946 72.0655 30.9346 72.1955C31.4846 72.3155 31.9296 72.4905 32.2696 72.7205C32.6096 72.9505 32.8596 73.2355 33.0196 73.5755C33.1796 73.9155 33.2596 74.3005 33.2596 74.7305C33.2596 74.9705 33.2346 75.2205 33.1846 75.4805C33.1346 75.7305 33.0496 75.9705 32.9296 76.2005C32.8096 76.4305 32.6446 76.6355 32.4346 76.8155C32.2346 76.9855 31.9796 77.1105 31.6696 77.1905C32.2496 77.3705 32.6596 77.6705 32.8996 78.0905C33.1396 78.5005 33.2596 78.9905 33.2596 79.5605C33.2596 80.0205 33.1846 80.4555 33.0346 80.8655C32.8846 81.2655 32.6246 81.6205 32.2546 81.9305C31.8846 82.2305 31.3946 82.4705 30.7846 82.6505C30.1746 82.8305 29.4096 82.9205 28.4896 82.9205ZM29.3446 78.2705C29.2346 78.2705 29.0996 78.2805 28.9396 78.3005C28.7796 78.3105 28.6146 78.3305 28.4446 78.3605L28.2796 80.8055C28.6396 80.9155 28.9646 80.9705 29.2546 80.9705C29.5646 80.9705 29.8146 80.9255 30.0046 80.8355C30.1946 80.7455 30.3396 80.6355 30.4396 80.5055C30.5496 80.3655 30.6196 80.2155 30.6496 80.0555C30.6896 79.8855 30.7096 79.7305 30.7096 79.5905C30.7096 79.2205 30.6046 78.9105 30.3946 78.6605C30.1946 78.4005 29.8446 78.2705 29.3446 78.2705ZM28.7146 74.1455C28.6946 74.4055 28.6746 74.7105 28.6546 75.0605C28.6446 75.4105 28.6246 75.7905 28.5946 76.2005C28.9146 76.2805 29.1996 76.3205 29.4496 76.3205C29.7496 76.3205 29.9896 76.2855 30.1696 76.2155C30.3496 76.1455 30.4896 76.0555 30.5896 75.9455C30.6996 75.8355 30.7696 75.7155 30.7996 75.5855C30.8396 75.4555 30.8596 75.3305 30.8596 75.2105C30.8596 74.9005 30.7546 74.6355 30.5446 74.4155C30.3446 74.1855 29.9946 74.0705 29.4946 74.0705C29.3846 74.0705 29.2596 74.0805 29.1196 74.1005C28.9896 74.1105 28.8546 74.1255 28.7146 74.1455ZM35.2766 82.7705C34.7166 82.7705 34.3166 82.6605 34.0766 82.4405C33.8366 82.2205 33.7166 81.9055 33.7166 81.4955C33.7166 81.2955 33.7316 80.9555 33.7616 80.4755C33.7916 79.9855 33.8316 79.4305 33.8816 78.8105C33.9316 78.1905 33.9816 77.5355 34.0316 76.8455C34.0816 76.1555 34.1316 75.5055 34.1816 74.8955C34.2316 74.2855 34.2716 73.7505 34.3016 73.2905C34.3316 72.8305 34.3466 72.5155 34.3466 72.3455C34.3466 72.1955 34.4266 72.1205 34.5866 72.1205H39.8666C39.9266 72.1205 39.9816 72.1355 40.0316 72.1655C40.0816 72.1955 40.1066 72.2505 40.1066 72.3305L40.0466 73.2155C40.0266 73.5155 39.9416 73.7605 39.7916 73.9505C39.6516 74.1305 39.3566 74.2205 38.9066 74.2205H36.8366L36.6866 76.3355H38.8166C38.8766 76.3355 38.9316 76.3505 38.9816 76.3805C39.0316 76.4105 39.0566 76.4655 39.0566 76.5455L38.9966 77.4305C38.9766 77.7305 38.8916 77.9755 38.7416 78.1655C38.6016 78.3455 38.3066 78.4355 37.8566 78.4355H36.5516L36.3866 80.6705H39.6866C39.7466 80.6705 39.8016 80.6905 39.8516 80.7305C39.9016 80.7605 39.9266 80.8105 39.9266 80.8805L39.8666 81.7655C39.8466 82.0655 39.7616 82.3105 39.6116 82.5005C39.4716 82.6805 39.1766 82.7705 38.7266 82.7705H35.2766ZM44.4563 71.9705C45.3963 71.9705 46.0913 72.1755 46.5413 72.5855C47.0013 72.9955 47.2313 73.5305 47.2313 74.1905C47.2313 74.7505 47.0763 75.1805 46.7663 75.4805C46.4563 75.7705 46.0113 75.9155 45.4313 75.9155C45.2513 75.9155 45.1363 75.9005 45.0863 75.8705C45.0363 75.8305 45.0113 75.7555 45.0113 75.6455C45.0113 75.5455 45.0013 75.4155 44.9813 75.2555C44.9713 75.0955 44.9363 74.9405 44.8763 74.7905C44.8163 74.6405 44.7213 74.5155 44.5913 74.4155C44.4613 74.3055 44.2813 74.2505 44.0513 74.2505C43.7313 74.2505 43.4463 74.3505 43.1963 74.5505C42.9463 74.7405 42.8213 74.9905 42.8213 75.3005C42.8213 75.5705 42.9213 75.7905 43.1213 75.9605C43.3313 76.1305 43.5913 76.2905 43.9013 76.4405C44.2113 76.5805 44.5463 76.7255 44.9063 76.8755C45.2763 77.0255 45.6163 77.2255 45.9263 77.4755C46.2363 77.7155 46.4913 78.0205 46.6913 78.3905C46.9013 78.7505 47.0063 79.2105 47.0063 79.7705C47.0063 80.2105 46.9313 80.6255 46.7813 81.0155C46.6413 81.3955 46.4263 81.7305 46.1363 82.0205C45.8563 82.3005 45.4963 82.5205 45.0563 82.6805C44.6263 82.8405 44.1213 82.9205 43.5413 82.9205C43.0413 82.9205 42.5763 82.8655 42.1463 82.7555C41.7263 82.6455 41.3563 82.5105 41.0363 82.3505C40.7263 82.1805 40.4813 82.0005 40.3013 81.8105C40.1213 81.6105 40.0313 81.4305 40.0313 81.2705C40.0313 80.6105 40.0663 80.1355 40.1363 79.8455C40.2163 79.5555 40.3563 79.4105 40.5563 79.4105C40.6963 79.4105 40.8413 79.4705 40.9913 79.5905C41.1513 79.7105 41.3313 79.8455 41.5313 79.9955C41.7313 80.1455 41.9613 80.2805 42.2213 80.4005C42.4913 80.5205 42.8013 80.5805 43.1513 80.5805C43.2913 80.5805 43.4263 80.5705 43.5563 80.5505C43.6963 80.5205 43.8163 80.4755 43.9163 80.4155C44.0263 80.3555 44.1113 80.2755 44.1713 80.1755C44.2413 80.0755 44.2763 79.9555 44.2763 79.8155C44.2763 79.5655 44.1813 79.3655 43.9913 79.2155C43.8013 79.0655 43.5613 78.9305 43.2713 78.8105C42.9813 78.6805 42.6663 78.5505 42.3263 78.4205C41.9963 78.2805 41.6863 78.0955 41.3963 77.8655C41.1063 77.6255 40.8663 77.3205 40.6763 76.9505C40.4863 76.5805 40.3913 76.1055 40.3913 75.5255C40.3913 74.8755 40.5113 74.3255 40.7513 73.8755C41.0013 73.4255 41.3163 73.0605 41.6963 72.7805C42.0863 72.4905 42.5213 72.2855 43.0013 72.1655C43.4913 72.0355 43.9763 71.9705 44.4563 71.9705Z" fill="white"/>
<path d="M25 49.3361H35M40 31.0752V33.51C40 38.8665 35.5 43.2491 30 43.2491M30 43.2491C24.5 43.2491 20 38.8665 20 33.51V31.0752M30 43.2491V49.3361" stroke="white" stroke-width="3" stroke-linecap="round" stroke-linejoin="round"/>
<path d="M30 39.7709C29.1392 39.7689 28.2875 39.5974 27.4956 39.2665C26.7037 38.9356 25.9877 38.4521 25.39 37.8447C24.1665 36.635 23.4795 35.0007 23.4783 33.2971V24.4256C23.475 23.5851 23.6414 22.7522 23.968 21.9749C24.2945 21.1977 24.7748 20.4916 25.381 19.8972C25.9873 19.3028 26.7076 18.832 27.5003 18.5118C28.2931 18.1917 29.1427 18.0285 30 18.0318C33.6571 18.0318 36.5217 20.8403 36.5217 24.4256V33.2971C36.5217 36.8665 33.5959 39.7709 30 39.7709Z" fill="white"/>
</svg>
